<svg width="24" height="24" viewBox="0 0 24 24" fill="none" xmlns="http://www.w3.org/2000/svg">
<g id="Icon/18px/embed search">
<g id="Vector">
<path d="M18.398 14.7395C18.398 16.6868 16.8194 18.2654 14.8721 18.2654C12.9249 18.2654 11.3463 16.6868 11.3463 14.7395C11.3463 12.7922 12.9249 11.2137 14.8721 11.2137C16.8194 11.2137 18.398 12.7922 18.398 14.7395Z" fill="#757F99"/>
<path fill-rule="evenodd" clip-rule="evenodd" d="M20.4916 14.6892C20.4916 16.0016 20.0417 17.209 19.2876 18.1654L21.3219 20.1997C21.5812 20.4591 21.5812 20.8796 21.3219 21.1389C21.0625 21.3983 20.6421 21.3983 20.3827 21.1389L18.3484 19.1046C17.392 19.8587 16.1846 20.3086 14.8722 20.3086C11.7687 20.3086 9.25279 17.7927 9.25279 14.6892C9.25279 11.5857 11.7687 9.0698 14.8722 9.0698C17.9757 9.0698 20.4916 11.5857 20.4916 14.6892ZM19.4197 14.7395C19.4197 17.2511 17.3837 19.2871 14.8721 19.2871C12.3606 19.2871 10.3246 17.2511 10.3246 14.7395C10.3246 12.228 12.3606 10.192 14.8721 10.192C17.3837 10.192 19.4197 12.228 19.4197 14.7395Z" fill="#757F99"/>
<path d="M9.90192 4.7125C9.8423 4.91276 9.74366 5.09925 9.61169 5.26125C9.47971 5.42325 9.31701 5.55754 9.13294 5.65642C9.02033 5.71704 8.90088 5.764 8.77713 5.79629L8.77849 8.58707C8.79821 8.59224 8.81793 8.59741 8.83745 8.60326C9.12226 8.6886 9.37743 8.8521 9.57398 9.07518C9.77054 9.29827 9.9006 9.572 9.94939 9.86529C9.99817 10.1586 9.96374 10.4597 9.84999 10.7344C9.73625 11.0091 9.54775 11.2464 9.3059 11.4193C9.06406 11.5923 8.77856 11.694 8.48183 11.7128C8.18511 11.7316 7.88905 11.6669 7.62728 11.5259C7.3655 11.3849 7.14851 11.1733 7.00095 10.9152C6.85338 10.6571 6.78116 10.3628 6.79247 10.0657L5.43423 9.65886C5.28713 9.90141 5.0778 10.1002 4.82797 10.2346C4.71532 10.2954 4.5958 10.3426 4.47197 10.3751L4.47285 13.165C4.49257 13.1702 4.51273 13.1751 4.53225 13.181C4.83344 13.2712 5.1011 13.4487 5.3014 13.6911C5.5017 13.9335 5.62563 14.2298 5.65753 14.5426C5.68943 14.8554 5.62787 15.1706 5.48062 15.4484C5.33337 15.7262 5.10705 15.9541 4.83028 16.1033C4.55351 16.2525 4.23872 16.3163 3.92571 16.2866C3.6127 16.2569 3.31552 16.135 3.07176 15.9364C2.828 15.7378 2.6486 15.4714 2.55625 15.1709C2.46389 14.8703 2.46273 14.5491 2.55291 14.2479C2.63144 13.9859 2.77622 13.7486 2.97327 13.559C3.17031 13.3693 3.41295 13.2337 3.67773 13.1652L3.67638 10.3744C3.65666 10.3693 3.63694 10.3641 3.61742 10.3583C3.41739 10.2984 3.23111 10.1997 3.06922 10.0678C2.90734 9.93589 2.77303 9.7734 2.67395 9.5896C2.57487 9.40579 2.51297 9.20427 2.49179 8.99654C2.4706 8.78881 2.49054 8.57894 2.55048 8.37892C2.66109 8.0077 2.90343 7.68963 3.23198 7.48445C3.56053 7.27927 3.95269 7.20111 4.3348 7.26463C4.71691 7.32815 5.06268 7.52899 5.30718 7.82943C5.55167 8.12987 5.67807 8.50924 5.66263 8.89628L7.02087 9.30309C7.2366 8.94836 7.58183 8.69143 7.98357 8.58662L7.98222 5.79584C7.9625 5.79067 7.94234 5.78573 7.92282 5.77988C7.72279 5.71999 7.53651 5.62129 7.37463 5.4894C7.21274 5.35751 7.07843 5.19502 6.97935 5.01122C6.88027 4.82742 6.81837 4.62589 6.79719 4.41816C6.776 4.21043 6.79595 4.00057 6.85588 3.80054C6.97687 3.39658 7.25338 3.05723 7.62458 2.85714C7.99577 2.65705 8.43125 2.61261 8.83522 2.7336C9.23918 2.85459 9.57853 3.1311 9.77862 3.5023C9.97871 3.8735 10.0229 4.30854 9.90192 4.7125Z" fill="#757F99"/>
</g>
</g>
</svg>
