<svg width="24" height="24" viewBox="0 0 24 24" fill="none" xmlns="http://www.w3.org/2000/svg">
<g id="Icon/18px/embed deduplicate">
<g id="Vector">
<path d="M20.9612 9.1301H12.8257C12.6909 9.1301 12.5615 9.18368 12.4662 9.27903C12.3708 9.37439 12.3173 9.50371 12.3173 9.63857V12.181H9.77484C9.63999 12.181 9.51066 12.2346 9.41531 12.3299C9.31995 12.4253 9.26638 12.5546 9.26637 12.6894V20.8249C9.26638 20.9598 9.31995 21.0891 9.41531 21.1845C9.51066 21.2798 9.63999 21.3334 9.77484 21.3334H17.9103C18.0452 21.3334 18.1745 21.2798 18.2699 21.1845C18.3652 21.0891 18.4188 20.9598 18.4188 20.8249V18.2825H20.9612C21.0961 18.2825 21.2254 18.229 21.3208 18.1336C21.4161 18.0382 21.4697 17.9089 21.4697 17.7741V9.63857C21.4697 9.50371 21.4161 9.37439 21.3208 9.27903C21.2254 9.18368 21.0961 9.1301 20.9612 9.1301ZM20.4528 17.2656H18.4188V12.6894C18.4188 12.5546 18.3652 12.4253 18.2699 12.3299C18.1745 12.2346 18.0452 12.181 17.9103 12.181H13.3342V10.147H20.4528V17.2656Z" fill="#757F99"/>
<path d="M9.9122 4.70244C9.85287 4.90172 9.75472 5.08729 9.62339 5.24849C9.49207 5.40969 9.33016 5.54333 9.147 5.64172C9.03494 5.70204 8.91608 5.74877 8.79294 5.7809L8.79429 8.55796C8.81391 8.56311 8.83353 8.56825 8.85296 8.57407C9.13637 8.65899 9.39029 8.82168 9.58588 9.04367C9.78146 9.26566 9.91088 9.53805 9.95943 9.8299C10.008 10.1217 9.97371 10.4214 9.86053 10.6947C9.74734 10.9681 9.55977 11.2042 9.31911 11.3763C9.07845 11.5484 8.79436 11.6496 8.49909 11.6683C8.20383 11.6871 7.90922 11.6226 7.64874 11.4823C7.38825 11.342 7.17233 11.1315 7.02549 10.8747C6.87865 10.6178 6.80678 10.3249 6.81804 10.0293L5.46648 9.62448C5.32009 9.86584 5.1118 10.0636 4.8632 10.1974C4.7511 10.2579 4.63217 10.3048 4.50894 10.3372L4.50982 13.1134C4.52944 13.1185 4.5495 13.1234 4.56893 13.1293C4.86863 13.2191 5.13498 13.3957 5.3343 13.6369C5.53361 13.8781 5.65694 14.1729 5.68868 14.4842C5.72042 14.7954 5.65916 15.1091 5.51264 15.3856C5.36611 15.662 5.14091 15.8888 4.8655 16.0373C4.59009 16.1857 4.27684 16.2492 3.96537 16.2196C3.6539 16.19 3.35818 16.0688 3.11562 15.8712C2.87306 15.6735 2.69454 15.4084 2.60264 15.1094C2.51074 14.8103 2.50959 14.4907 2.59932 14.191C2.67747 13.9303 2.82154 13.6942 3.01761 13.5054C3.21369 13.3167 3.45514 13.1817 3.71861 13.1136L3.71727 10.3366C3.69764 10.3314 3.67802 10.3263 3.6586 10.3204C3.45955 10.2608 3.27418 10.1626 3.1131 10.0314C2.95201 9.90015 2.81836 9.73846 2.71977 9.55556C2.62117 9.37266 2.55958 9.17213 2.5385 8.96542C2.51742 8.75871 2.53726 8.54987 2.5969 8.35083C2.70697 7.98144 2.94812 7.66493 3.27505 7.46076C3.60199 7.25659 3.99222 7.17881 4.37245 7.24202C4.75268 7.30523 5.09675 7.50508 5.34005 7.80405C5.58334 8.10301 5.70912 8.48051 5.69375 8.86565L7.04531 9.27046C7.25999 8.91747 7.60352 8.6618 8.00328 8.55751L8.00194 5.78045C7.98231 5.77531 7.96225 5.77039 7.94283 5.76457C7.74378 5.70498 7.55842 5.60676 7.39733 5.47552C7.23624 5.34428 7.10259 5.18259 7.004 4.99969C6.90541 4.81679 6.84381 4.61626 6.82273 4.40955C6.80165 4.20284 6.82149 3.99401 6.88113 3.79497C7.00153 3.39299 7.27668 3.05531 7.64605 2.8562C8.01542 2.6571 8.44876 2.61288 8.85074 2.73327C9.25271 2.85367 9.5904 3.12882 9.7895 3.49819C9.98861 3.86756 10.0326 4.30047 9.9122 4.70244Z" fill="#757F99"/>
</g>
</g>
</svg>
