<svg width="24" height="24" viewBox="0 0 24 24" fill="none" xmlns="http://www.w3.org/2000/svg">
<g id="Icon/18px/evaluate">
<path id="Vector" d="M17.9092 3.46436H6.09075C5.74248 3.46436 5.40847 3.60271 5.16221 3.84897C4.91594 4.09524 4.77759 4.42925 4.77759 4.77752V19.2223C4.77759 19.5706 4.91594 19.9046 5.16221 20.1509C5.40847 20.3972 5.74248 20.5355 6.09075 20.5355H17.9092C18.2575 20.5355 18.5915 20.3972 18.8378 20.1509C19.0841 19.9046 19.2224 19.5706 19.2224 19.2223V4.77752C19.2224 4.42925 19.0841 4.09524 18.8378 3.84897C18.5915 3.60271 18.2575 3.46436 17.9092 3.46436ZM8.71708 17.9092C8.5223 17.9092 8.33188 17.8514 8.16992 17.7432C8.00796 17.635 7.88172 17.4812 7.80718 17.3012C7.73264 17.1212 7.71313 16.9232 7.75113 16.7322C7.78914 16.5411 7.88294 16.3656 8.02067 16.2279C8.15841 16.0902 8.3339 15.9964 8.52495 15.9584C8.71599 15.9204 8.91402 15.9399 9.09398 16.0144C9.27394 16.0889 9.42776 16.2152 9.53598 16.3771C9.6442 16.5391 9.70196 16.7295 9.70196 16.9243C9.70196 17.1855 9.5982 17.436 9.4135 17.6207C9.2288 17.8054 8.97829 17.9092 8.71708 17.9092ZM8.71708 14.6263C8.5223 14.6263 8.33188 14.5685 8.16992 14.4603C8.00796 14.3521 7.88172 14.1982 7.80718 14.0183C7.73264 13.8383 7.71313 13.6403 7.75113 13.4493C7.78914 13.2582 7.88294 13.0827 8.02067 12.945C8.15841 12.8072 8.3339 12.7134 8.52495 12.6754C8.71599 12.6374 8.91402 12.6569 9.09398 12.7315C9.27394 12.806 9.42776 12.9323 9.53598 13.0942C9.6442 13.2562 9.70196 13.4466 9.70196 13.6414C9.70196 13.9026 9.5982 14.1531 9.4135 14.3378C9.2288 14.5225 8.97829 14.6263 8.71708 14.6263ZM12 17.9092C11.8052 17.9092 11.6148 17.8514 11.4528 17.7432C11.2909 17.635 11.1646 17.4812 11.0901 17.3012C11.0156 17.1212 10.996 16.9232 11.034 16.7322C11.0721 16.5411 11.1659 16.3656 11.3036 16.2279C11.4413 16.0902 11.6168 15.9964 11.8079 15.9584C11.9989 15.9204 12.1969 15.9399 12.3769 16.0144C12.5569 16.0889 12.7107 16.2152 12.8189 16.3771C12.9271 16.5391 12.9849 16.7295 12.9849 16.9243C12.9849 17.1855 12.8811 17.436 12.6964 17.6207C12.5117 17.8054 12.2612 17.9092 12 17.9092ZM12 14.6263C11.8052 14.6263 11.6148 14.5685 11.4528 14.4603C11.2909 14.3521 11.1646 14.1982 11.0901 14.0183C11.0156 13.8383 10.996 13.6403 11.034 13.4493C11.0721 13.2582 11.1659 13.0827 11.3036 12.945C11.4413 12.8072 11.6168 12.7134 11.8079 12.6754C11.9989 12.6374 12.1969 12.6569 12.3769 12.7315C12.5569 12.806 12.7107 12.9323 12.8189 13.0942C12.9271 13.2562 12.9849 13.4466 12.9849 13.6414C12.9849 13.9026 12.8811 14.1531 12.6964 14.3378C12.5117 14.5225 12.2612 14.6263 12 14.6263ZM15.2829 17.9092C15.0881 17.9092 14.8977 17.8514 14.7357 17.7432C14.5738 17.635 14.4476 17.4812 14.373 17.3012C14.2985 17.1212 14.279 16.9232 14.317 16.7322C14.355 16.5411 14.4488 16.3656 14.5865 16.2279C14.7242 16.0902 14.8997 15.9964 15.0908 15.9584C15.2818 15.9204 15.4798 15.9399 15.6598 16.0144C15.8398 16.0889 15.9936 16.2152 16.1018 16.3771C16.21 16.5391 16.2678 16.7295 16.2678 16.9243C16.2678 17.1855 16.164 17.436 15.9793 17.6207C15.7946 17.8054 15.5441 17.9092 15.2829 17.9092ZM15.2829 14.6263C15.0881 14.6263 14.8977 14.5685 14.7357 14.4603C14.5738 14.3521 14.4476 14.1982 14.373 14.0183C14.2985 13.8383 14.279 13.6403 14.317 13.4493C14.355 13.2582 14.4488 13.0827 14.5865 12.945C14.7242 12.8072 14.8997 12.7134 15.0908 12.6754C15.2818 12.6374 15.4798 12.6569 15.6598 12.7315C15.8398 12.806 15.9936 12.9323 16.1018 13.0942C16.21 13.2562 16.2678 13.4466 16.2678 13.6414C16.2678 13.9026 16.164 14.1531 15.9793 14.3378C15.7946 14.5225 15.5441 14.6263 15.2829 14.6263ZM16.5961 10.0302C16.5961 10.2043 16.5269 10.3713 16.4038 10.4945C16.2806 10.6176 16.1136 10.6868 15.9395 10.6868H8.0605C7.88637 10.6868 7.71936 10.6176 7.59623 10.4945C7.47309 10.3713 7.40392 10.2043 7.40392 10.0302V6.74727C7.40392 6.57313 7.47309 6.40613 7.59623 6.283C7.71936 6.15986 7.88637 6.09069 8.0605 6.09069H15.9395C16.1136 6.09069 16.2806 6.15986 16.4038 6.283C16.5269 6.40613 16.5961 6.57313 16.5961 6.74727V10.0302Z" fill="#757F99"/>
</g>
</svg>
