<svg width="24" height="24" viewBox="0 0 24 24" fill="none" xmlns="http://www.w3.org/2000/svg">
<g id="Icon/18px/pause">
<path id="Vector" d="M12 3.46924C10.3128 3.46924 8.66348 3.96955 7.26063 4.90691C5.85777 5.84427 4.76438 7.17657 4.11872 8.73534C3.47306 10.2941 3.30412 12.0093 3.63328 13.6641C3.96243 15.3189 4.7749 16.8389 5.96793 18.0319C7.16096 19.225 8.68097 20.0374 10.3357 20.3666C11.9905 20.6957 13.7058 20.5268 15.2645 19.8811C16.8233 19.2355 18.1556 18.1421 19.093 16.7392C20.0303 15.3364 20.5306 13.6871 20.5306 11.9999C20.5278 9.73827 19.6281 7.57011 18.0289 5.97092C16.4297 4.37173 14.2616 3.47206 12 3.46924ZM10.6876 14.6247C10.6876 14.7987 10.6185 14.9656 10.4954 15.0887C10.3723 15.2117 10.2054 15.2809 10.0314 15.2809C9.85735 15.2809 9.69044 15.2117 9.56738 15.0887C9.44432 14.9656 9.37518 14.7987 9.37518 14.6247V9.37506C9.37518 9.20102 9.44432 9.03411 9.56738 8.91105C9.69044 8.78799 9.85735 8.71885 10.0314 8.71885C10.2054 8.71885 10.3723 8.78799 10.4954 8.91105C10.6185 9.03411 10.6876 9.20102 10.6876 9.37506V14.6247ZM14.6248 14.6247C14.6248 14.7987 14.5557 14.9656 14.4326 15.0887C14.3095 15.2117 14.1426 15.2809 13.9686 15.2809C13.7946 15.2809 13.6277 15.2117 13.5046 15.0887C13.3815 14.9656 13.3124 14.7987 13.3124 14.6247V9.37506C13.3124 9.20102 13.3815 9.03411 13.5046 8.91105C13.6277 8.78799 13.7946 8.71885 13.9686 8.71885C14.1426 8.71885 14.3095 8.78799 14.4326 8.91105C14.5557 9.03411 14.6248 9.20102 14.6248 9.37506V14.6247Z" fill="#757F99"/>
</g>
</svg>
