<svg width="24" height="24" viewBox="0 0 24 24" fill="none" xmlns="http://www.w3.org/2000/svg">
<g id="Icon/18px/prompt">
<path id="Vector" d="M18.4992 5.0022H4.96075C4.63433 5.0022 4.32128 5.13187 4.09046 5.36268C3.85965 5.5935 3.72998 5.90655 3.72998 6.23297V17.3099C3.72998 17.6363 3.85965 17.9494 4.09046 18.1802C4.32128 18.411 4.63433 18.5407 4.96075 18.5407H18.4992C18.8256 18.5407 19.1387 18.411 19.3695 18.1802C19.6003 17.9494 19.73 17.6363 19.73 17.3099V6.23297C19.73 5.90655 19.6003 5.5935 19.3695 5.36268C19.1387 5.13187 18.8256 5.0022 18.4992 5.0022ZM7.85767 15.2837C7.7422 15.3992 7.58559 15.4641 7.42229 15.4641C7.25899 15.4641 7.10237 15.3992 6.9869 15.2837C6.87143 15.1683 6.80656 15.0117 6.80656 14.8484C6.80656 14.6851 6.87143 14.5284 6.9869 14.413L9.62921 11.7714L6.9869 9.12989C6.87143 9.01442 6.80656 8.85781 6.80656 8.69451C6.80656 8.5312 6.87143 8.37459 6.9869 8.25912C7.10237 8.14365 7.25899 8.07878 7.42229 8.07878C7.58559 8.07878 7.7422 8.14365 7.85767 8.25912L10.9346 11.336C10.9918 11.3932 11.0372 11.4611 11.0682 11.5358C11.0991 11.6105 11.1151 11.6906 11.1151 11.7714C11.1151 11.8523 11.0991 11.9324 11.0682 12.0071C11.0372 12.0818 10.9918 12.1497 10.9346 12.2068L7.85767 15.2837ZM16.6531 15.4637H11.73C11.5668 15.4637 11.4102 15.3989 11.2948 15.2835C11.1794 15.1681 11.1146 15.0116 11.1146 14.8484C11.1146 14.6851 11.1794 14.5286 11.2948 14.4132C11.4102 14.2978 11.5668 14.233 11.73 14.233H16.6531C16.8163 14.233 16.9728 14.2978 17.0882 14.4132C17.2036 14.5286 17.2684 14.6851 17.2684 14.8484C17.2684 15.0116 17.2036 15.1681 17.0882 15.2835C16.9728 15.3989 16.8163 15.4637 16.6531 15.4637Z" fill="#757F99"/>
</g>
</svg>
