<svg width="24" height="24" viewBox="0 0 24 24" fill="none" xmlns="http://www.w3.org/2000/svg">
<g id="Icon/18px/stop">
<path id="Vector" d="M19.2332 6.27252V15.314C19.2327 15.3998 19.2139 15.4846 19.178 15.5625C19.1422 15.6405 19.0901 15.7099 19.0252 15.7661C17.874 16.7629 16.7732 17.1223 15.7236 17.1223C14.2988 17.1223 12.9682 16.4638 11.7303 15.8527C9.72982 14.8619 7.99084 14.0038 5.97232 15.5981V18.9306C5.97232 19.0905 5.90881 19.2438 5.79577 19.3568C5.68273 19.4699 5.52942 19.5334 5.36955 19.5334C5.20969 19.5334 5.05637 19.4699 4.94333 19.3568C4.83029 19.2438 4.76678 19.0905 4.76678 18.9306V6.27252C4.76736 6.18664 4.78628 6.10189 4.82228 6.02392C4.85827 5.94595 4.91051 5.87658 4.97549 5.82044C7.68795 3.47116 10.1224 4.67443 12.2682 5.73605C14.3357 6.75925 16.1282 7.64381 18.2356 5.82044C18.3227 5.74493 18.4297 5.69599 18.5437 5.6794C18.6578 5.66282 18.7742 5.6793 18.8792 5.72688C18.9842 5.77446 19.0734 5.85115 19.1361 5.94786C19.1989 6.04457 19.2325 6.15724 19.2332 6.27252Z" fill="#757F99"/>
</g>
</svg>
