<svg width="18" height="18" viewBox="0 0 18 18" fill="none" xmlns="http://www.w3.org/2000/svg">
<g id="Icon/18px/stop">
<path id="Vector" d="M14.4249 4.7044V11.4855C14.4245 11.5499 14.4104 11.6134 14.3835 11.6719C14.3566 11.7304 14.3176 11.7824 14.2689 11.8246C13.4055 12.5722 12.5799 12.8418 11.7927 12.8418C10.7241 12.8418 9.72615 12.3479 8.7977 11.8896C7.29737 11.1465 5.99313 10.5028 4.47925 11.6986V14.198C4.47925 14.3179 4.43162 14.4329 4.34684 14.5177C4.26206 14.6024 4.14707 14.6501 4.02717 14.6501C3.90727 14.6501 3.79229 14.6024 3.70751 14.5177C3.62273 14.4329 3.5751 14.3179 3.5751 14.198V4.7044C3.57553 4.64 3.58972 4.57643 3.61672 4.51796C3.64371 4.45948 3.68289 4.40745 3.73163 4.36535C5.76597 2.60338 7.59179 3.50584 9.20117 4.30206C10.7518 5.06945 12.0962 5.73287 13.6767 4.36535C13.742 4.30871 13.8222 4.272 13.9078 4.25957C13.9934 4.24713 14.0807 4.25949 14.1594 4.29517C14.2382 4.33086 14.305 4.38838 14.3521 4.46091C14.3992 4.53344 14.4244 4.61795 14.4249 4.7044Z" fill="#757F99"/>
</g>
</svg>
